<svg xmlns="http://www.w3.org/2000/svg"><symbol id="mecha-stilts" viewBox="0 0 250 250"><path d="M124 .3l108 62.3v124.8l-108 62.3-108-62.3V62.6L124 .3z"/><path fill="#fff" d="M61.3 171.1a2.1 2.1 0 0 1 0-4.1h10.3v-12.9H61.3a1.9 1.9 0 0 1-2-2.1v-40.3a2 2 0 0 1 2-2.1h13.5c1.1-29 22.8-45 49.2-45s48.1 16 49.2 45h13.5a2 2 0 0 1 2 2.1V152a1.9 1.9 0 0 1-2 2.1h-10.3V167h10.3a2.1 2.1 0 0 1 0 4.1zm2.1-57.4V150h121.2v-36.3zm12.3 40.4V167h13.1v-12.9zm3.2-44.5h90.2C168 83.2 148 68.7 124 68.7s-44 14.5-45.1 40.9zm14 44.5V167h20.4v-12.9zm24.5 0V167h13.2v-12.9zm55.5-13.9H123a2.3 2.3 0 0 1-2.1-2.1 2.2 2.2 0 0 1 2.1-2h49.9a2.2 2.2 0 0 1 2.1 2 2.3 2.3 0 0 1-2.1 2.1zm-38.3 13.9V167h20.5v-12.9zm24.6 0V167h13.1v-12.9z"/></symbol><symbol id="super-domes" viewBox="0 0 250 250"><path d="M125 0l108.3 62.5v125L125 250 16.7 187.5v-125L125 0z"/><path fill="#fff" d="M65.7 171.2a1.9 1.9 0 0 1-2.1-2.1v-24.8H36.5a2.1 2.1 0 0 1 0-4.1h15.4v-13.4a1.9 1.9 0 0 1 2.1-2h8a65 65 0 0 1 62.8-49.9c.2-.2.4-.2.8 0 30.4.2 55.6 21.6 62.4 49.9h8a1.9 1.9 0 0 1 2.1 2v13.4h15.4a2.1 2.1 0 0 1 0 4.1h-27.1v24.8a1.9 1.9 0 0 1-2.1 2.1zM56 128.9v11.3h138v-11.3zm64.9-49.7a60.8 60.8 0 0 0-54.6 45.6h22zm-53.2 65.1v22.8h55.2v-22.8zm55.2-61l-29.5 41.5h29.5zM127 79v45.8h56.7A60.9 60.9 0 0 0 127 79zm0 65.3v22.8h9.3v-22.8zm13.4 0v22.8h41.9v-22.8z"/></symbol><symbol id="space-bubbles" viewBox="0 0 250 250"><path d="M124 0l108.3 62.5v125L124 250 15.7 187.5v-125L124 0z"/><path fill="#fff" d="M62.8 175.7l-4.7-6.8a2.1 2.1 0 0 1 .2-2.4l17-20.2h-8.4a1.9 1.9 0 0 1-2-2v-14.8a1.9 1.9 0 0 1 2-2h11.9a59.3 59.3 0 0 1-2.2-15.6 48.6 48.6 0 1 1 94.8 15.6h11.9a1.9 1.9 0 0 1 2.1 2v14.8a1.9 1.9 0 0 1-2.1 2h-10.4l16.8 20.2a2.1 2.1 0 0 1 0 2.4l-4.7 6.8a2.3 2.3 0 0 1-2.7.6l-9.9-5.1H75.3l-9.8 5.1a2.3 2.3 0 0 1-2.7-.6zM94 146.3H80.5l-18.1 21.4 2.9 4.1 34.7-18.3zm-25-14.7v10.6h112.3v-10.6zm14.1-4.1h84a48.5 48.5 0 0 0 2.5-15.6 44.5 44.5 0 0 0-88.9 0c0 5.3.4 10.8 2.4 15.6zm19.8 29.3l-19.6 10.3h28zm-3.5-10.5l17.2 20.8h14.8l17.2-20.8zm45.7 10.5l-8.4 10.3h27.9zm22.4-10.5H154l-6.2 7.2 34.9 18.3 2.9-3.9z"/></symbol></svg>