<svg xmlns="http://www.w3.org/2000/svg" width="250" height="250" viewBox="0 0 250 250"><path d="M124 .3l108 62.3v124.8l-108 62.3-108-62.3V62.6L124 .3z"/><path fill="#fff" d="M61.3 171.1a2.1 2.1 0 0 1 0-4.1h10.3v-12.9H61.3a1.9 1.9 0 0 1-2-2.1v-40.3a2 2 0 0 1 2-2.1h13.5c1.1-29 22.8-45 49.2-45s48.1 16 49.2 45h13.5a2 2 0 0 1 2 2.1V152a1.9 1.9 0 0 1-2 2.1h-10.3V167h10.3a2.1 2.1 0 0 1 0 4.1zm2.1-57.4V150h121.2v-36.3zm12.3 40.4V167h13.1v-12.9zm3.2-44.5h90.2C168 83.2 148 68.7 124 68.7s-44 14.5-45.1 40.9zm14 44.5V167h20.4v-12.9zm24.5 0V167h13.2v-12.9zm55.5-13.9H123a2.3 2.3 0 0 1-2.1-2.1 2.2 2.2 0 0 1 2.1-2h49.9a2.2 2.2 0 0 1 2.1 2 2.3 2.3 0 0 1-2.1 2.1zm-38.3 13.9V167h20.5v-12.9zm24.6 0V167h13.1v-12.9z"/></svg>