<svg xmlns="http://www.w3.org/2000/svg" width="250" height="250" viewBox="0 0 250 250"><path d="M124 0l108.3 62.5v125L124 250 15.7 187.5v-125L124 0z"/><path fill="#fff" d="M62.8 175.7l-4.7-6.8a2.1 2.1 0 0 1 .2-2.4l17-20.2h-8.4a1.9 1.9 0 0 1-2-2v-14.8a1.9 1.9 0 0 1 2-2h11.9a59.3 59.3 0 0 1-2.2-15.6 48.6 48.6 0 1 1 94.8 15.6h11.9a1.9 1.9 0 0 1 2.1 2v14.8a1.9 1.9 0 0 1-2.1 2h-10.4l16.8 20.2a2.1 2.1 0 0 1 0 2.4l-4.7 6.8a2.3 2.3 0 0 1-2.7.6l-9.9-5.1H75.3l-9.8 5.1a2.3 2.3 0 0 1-2.7-.6zM94 146.3H80.5l-18.1 21.4 2.9 4.1 34.7-18.3zm-25-14.7v10.6h112.3v-10.6zm14.1-4.1h84a48.5 48.5 0 0 0 2.5-15.6 44.5 44.5 0 0 0-88.9 0c0 5.3.4 10.8 2.4 15.6zm19.8 29.3l-19.6 10.3h28zm-3.5-10.5l17.2 20.8h14.8l17.2-20.8zm45.7 10.5l-8.4 10.3h27.9zm22.4-10.5H154l-6.2 7.2 34.9 18.3 2.9-3.9z"/></svg>