<svg xmlns="http://www.w3.org/2000/svg" width="250" height="250" viewBox="0 0 250 250"><path d="M125 0l108.3 62.5v125L125 250 16.7 187.5v-125L125 0z"/><path fill="#fff" d="M65.7 171.2a1.9 1.9 0 0 1-2.1-2.1v-24.8H36.5a2.1 2.1 0 0 1 0-4.1h15.4v-13.4a1.9 1.9 0 0 1 2.1-2h8a65 65 0 0 1 62.8-49.9c.2-.2.4-.2.8 0 30.4.2 55.6 21.6 62.4 49.9h8a1.9 1.9 0 0 1 2.1 2v13.4h15.4a2.1 2.1 0 0 1 0 4.1h-27.1v24.8a1.9 1.9 0 0 1-2.1 2.1zM56 128.9v11.3h138v-11.3zm64.9-49.7a60.8 60.8 0 0 0-54.6 45.6h22zm-53.2 65.1v22.8h55.2v-22.8zm55.2-61l-29.5 41.5h29.5zM127 79v45.8h56.7A60.9 60.9 0 0 0 127 79zm0 65.3v22.8h9.3v-22.8zm13.4 0v22.8h41.9v-22.8z"/></svg>